<svg id="Calque_1" data-name="Calque 1" xmlns="http://www.w3.org/2000/svg" xmlns:xlink="http://www.w3.org/1999/xlink" viewBox="0 0 286.55 182.58"><defs><style>.cls-1{fill:#1d1d1b;}.cls-2{fill:url(#Dégradé_sans_nom_182);}.cls-3{fill:url(#Dégradé_sans_nom_9);}.cls-4{fill:url(#Dégradé_sans_nom_189);}.cls-5{fill:url(#Dégradé_sans_nom_186);}.cls-6{fill:url(#Dégradé_sans_nom_127);}</style><linearGradient id="Dégradé_sans_nom_182" x1="158.49" y1="65.43" x2="213.09" y2="65.43" gradientUnits="userSpaceOnUse"><stop offset="0" stop-color="#36a9e1"/><stop offset="0.65" stop-color="#2068b1"/><stop offset="1" stop-color="#134395"/></linearGradient><linearGradient id="Dégradé_sans_nom_9" x1="174.81" y1="29.89" x2="213.09" y2="29.89" gradientUnits="userSpaceOnUse"><stop offset="0" stop-color="#2d2e83"/><stop offset="0.02" stop-color="#2d3185"/><stop offset="0.34" stop-color="#3165ad"/><stop offset="0.63" stop-color="#348ac9"/><stop offset="0.86" stop-color="#35a1db"/><stop offset="1" stop-color="#36a9e1"/></linearGradient><linearGradient id="Dégradé_sans_nom_189" x1="70.86" y1="22.87" x2="124.65" y2="22.87" gradientUnits="userSpaceOnUse"><stop offset="0" stop-color="#164194"/><stop offset="1" stop-color="#36a9e1"/></linearGradient><linearGradient id="Dégradé_sans_nom_186" x1="69.79" y1="56.23" x2="108.95" y2="56.23" gradientUnits="userSpaceOnUse"><stop offset="0" stop-color="#36a9e1"/><stop offset="1" stop-color="#164194"/></linearGradient><linearGradient id="Dégradé_sans_nom_127" x1="101.86" y1="45.92" x2="180.78" y2="45.92" gradientUnits="userSpaceOnUse"><stop offset="0" stop-color="#36a9e1"/><stop offset="0.21" stop-color="#3198d4"/><stop offset="0.64" stop-color="#236cb4"/><stop offset="1" stop-color="#164194"/></linearGradient></defs><path class="cls-1" d="M264,359.65V325.48h5.52l13.45,20.95h-2.86l13.41-20.95H299v34.17h-7.6V338.3l1.3.39L284,352.29h-5l-8.71-13.6,1.31-.39v21.35Z" transform="translate(-263.95 -205.62)"/><path class="cls-1" d="M303,359.65l13.51-34.17h6.92l13.4,34.17H328.7l-10.21-28.32h2.81l-10.46,28.32Zm7.75-6.15v-6.19h18.58v6.19Z" transform="translate(-263.95 -205.62)"/><path class="cls-1" d="M340.36,359.65V325.48H348v34.17Zm20.67,0-13.79-17.86,13.35-16.31H370l-15.1,17.76v-3.1l15.63,19.51Z" transform="translate(-263.95 -205.62)"/><path class="cls-1" d="M373.61,359.65V325.48h7.65v34.17Zm5.86-27.59v-6.58H398v6.58Zm0,13.36V339h17v6.44Zm0,14.23v-6.59h18.77v6.59Z" transform="translate(-263.95 -205.62)"/><path class="cls-1" d="M404.34,359.65v-33.3h3.58v33.3Zm2.32-13.36v-3.15h9.78a8,8,0,0,0,3.7-.82,6.13,6.13,0,0,0,2.54-2.35,7.7,7.7,0,0,0,0-7.3,6.13,6.13,0,0,0-2.54-2.35,8,8,0,0,0-3.7-.82h-9.78v-3.15h10.07a11.48,11.48,0,0,1,5.37,1.23,9.48,9.48,0,0,1,3.75,3.49,10.71,10.71,0,0,1,0,10.52,9.5,9.5,0,0,1-3.75,3.47,11.48,11.48,0,0,1-5.37,1.23Z" transform="translate(-263.95 -205.62)"/><path class="cls-1" d="M433.28,359.65v-33.3h3.58v33.3Zm2.33-14.86v-3.05h9.63a7.07,7.07,0,0,0,5.05-1.67,5.8,5.8,0,0,0,1.77-4.43,6,6,0,0,0-1.74-4.43,6.9,6.9,0,0,0-5-1.71h-9.67v-3.15h9.67a12.12,12.12,0,0,1,5.57,1.19,8.6,8.6,0,0,1,3.56,3.26,9.16,9.16,0,0,1,1.23,4.75,9.29,9.29,0,0,1-1.23,4.86,8.51,8.51,0,0,1-3.56,3.22,12.38,12.38,0,0,1-5.57,1.16Zm17.81,14.86-12.49-15.39,3.48-1.12L458,359.65Z" transform="translate(-263.95 -205.62)"/><path class="cls-1" d="M477.61,360.13A16.22,16.22,0,0,1,471,358.8a16.47,16.47,0,0,1-5.32-3.68,16.74,16.74,0,0,1-3.54-5.47,18.66,18.66,0,0,1,0-13.43,16.88,16.88,0,0,1,3.51-5.42,16.17,16.17,0,0,1,5.28-3.63,16.6,16.6,0,0,1,18.41,3.63,16.55,16.55,0,0,1,3.54,5.45,18.72,18.72,0,0,1,0,13.45,16.57,16.57,0,0,1-8.76,9.1A15.9,15.9,0,0,1,477.61,360.13Zm-.09-3.44a12.38,12.38,0,0,0,6.67-1.79,12.86,12.86,0,0,0,4.6-4.88,14.5,14.5,0,0,0,1.7-7.07,15,15,0,0,0-1-5.44,13.23,13.23,0,0,0-2.71-4.34,12.38,12.38,0,0,0-4.12-2.85,12.93,12.93,0,0,0-5.17-1,12.47,12.47,0,0,0-11.26,6.61,14.53,14.53,0,0,0-1.67,7,15.23,15.23,0,0,0,1,5.47,13.41,13.41,0,0,0,2.71,4.38,12.07,12.07,0,0,0,4.12,2.88A12.83,12.83,0,0,0,477.52,356.69Z" transform="translate(-263.95 -205.62)"/><path class="cls-1" d="M501,359.65v-33.3h3.58v33.3Zm2.32-13.36v-3.15h9.78a8.06,8.06,0,0,0,3.7-.82,6.13,6.13,0,0,0,2.54-2.35,7.7,7.7,0,0,0,0-7.3,6.13,6.13,0,0,0-2.54-2.35,8.06,8.06,0,0,0-3.7-.82h-9.78v-3.15h10.07a11.48,11.48,0,0,1,5.37,1.23,9.48,9.48,0,0,1,3.75,3.49,10.71,10.71,0,0,1,0,10.52,9.5,9.5,0,0,1-3.75,3.47,11.48,11.48,0,0,1-5.37,1.23Z" transform="translate(-263.95 -205.62)"/><path class="cls-1" d="M539.61,360.13a14.44,14.44,0,0,1-6.73-1.45,14.74,14.74,0,0,1-4.89-4.16l2.47-2.42a11.12,11.12,0,0,0,3.94,3.53,11.6,11.6,0,0,0,5.35,1.16,8.46,8.46,0,0,0,5.16-1.45,4.75,4.75,0,0,0,2-4,5.53,5.53,0,0,0-.9-3.26,6.84,6.84,0,0,0-2.39-2.09,25.14,25.14,0,0,0-3.27-1.42c-1.18-.42-2.37-.87-3.56-1.33a15.48,15.48,0,0,1-3.27-1.75,7.85,7.85,0,0,1-2.39-2.71,8.72,8.72,0,0,1-.92-4.23,8,8,0,0,1,1.31-4.65,8.39,8.39,0,0,1,3.6-3,12.38,12.38,0,0,1,5.2-1,13,13,0,0,1,5.79,1.25,12.35,12.35,0,0,1,4.23,3.39L547.83,333a10.8,10.8,0,0,0-3.38-2.83,9.22,9.22,0,0,0-4.26-.94,7.39,7.39,0,0,0-4.65,1.35,4.51,4.51,0,0,0-1.74,3.78,4.84,4.84,0,0,0,.89,3,7.05,7.05,0,0,0,2.4,1.93,23.28,23.28,0,0,0,3.27,1.38c1.17.4,2.36.85,3.55,1.33a14.46,14.46,0,0,1,3.27,1.84,8.7,8.7,0,0,1,2.4,2.83,9.29,9.29,0,0,1,.92,4.38,8.21,8.21,0,0,1-2.93,6.71A12.25,12.25,0,0,1,539.61,360.13Z" transform="translate(-263.95 -205.62)"/><path class="cls-1" d="M264.42,374.56v-1.45h7.84v1.45Zm2.69,9.17v-12.4a3.89,3.89,0,0,1,.49-2A3.41,3.41,0,0,1,269,368a3.93,3.93,0,0,1,2-.49,3.6,3.6,0,0,1,1.51.3,4.31,4.31,0,0,1,1.2.85l-1.06,1.06a2.46,2.46,0,0,0-.74-.54,2.17,2.17,0,0,0-.91-.18,2.1,2.1,0,0,0-1.64.63,2.48,2.48,0,0,0-.58,1.72v12.38Z" transform="translate(-263.95 -205.62)"/><path class="cls-1" d="M283.1,384a5.4,5.4,0,0,1-2.8-.74,5.61,5.61,0,0,1-2-2,5.55,5.55,0,0,1-.73-2.83,5.37,5.37,0,0,1,.73-2.78,5.58,5.58,0,0,1,2-2,5.4,5.4,0,0,1,2.8-.74,5.53,5.53,0,0,1,2.79.73,5.38,5.38,0,0,1,2.72,4.76,5.51,5.51,0,0,1-.73,2.84,5.69,5.69,0,0,1-2,2A5.44,5.44,0,0,1,283.1,384Zm0-1.53a3.91,3.91,0,0,0,2-.52,3.68,3.68,0,0,0,1.37-1.45,4.24,4.24,0,0,0,.5-2.08,4,4,0,0,0-.51-2,3.86,3.86,0,0,0-1.37-1.41,3.75,3.75,0,0,0-2-.52,3.77,3.77,0,0,0-3.37,1.93,4.11,4.11,0,0,0-.49,2,4.3,4.3,0,0,0,.49,2.09,3.75,3.75,0,0,0,1.38,1.44A3.91,3.91,0,0,0,283.1,382.42Z" transform="translate(-263.95 -205.62)"/><path class="cls-1" d="M295.61,383.73V373.11h1.6v10.62Zm1.6-6.19-.65-.27a4.87,4.87,0,0,1,1-3.21,3.36,3.36,0,0,1,2.7-1.18,3.61,3.61,0,0,1,1.45.29,3.7,3.7,0,0,1,1.22.89l-1.07,1.11a2.12,2.12,0,0,0-.82-.59,2.89,2.89,0,0,0-1-.18,2.64,2.64,0,0,0-2,.79A3.26,3.26,0,0,0,297.21,377.54Z" transform="translate(-263.95 -205.62)"/><path class="cls-1" d="M323.07,384a4.47,4.47,0,0,1-2.31-.6,4.07,4.07,0,0,1-1.59-1.65,5,5,0,0,1-.57-2.42v-6.17h1.61v6.1a3.73,3.73,0,0,0,.35,1.69,2.62,2.62,0,0,0,1,1.13,2.82,2.82,0,0,0,1.51.41,2.66,2.66,0,0,0,2.1-.88,3.41,3.41,0,0,0,.77-2.35v-6.1h1.6v6.17a5.08,5.08,0,0,1-.56,2.44,4.13,4.13,0,0,1-1.57,1.64A4.47,4.47,0,0,1,323.07,384Z" transform="translate(-263.95 -205.62)"/><path class="cls-1" d="M338.27,384a5.68,5.68,0,0,1-1.65-.24,5.34,5.34,0,0,1-1.43-.66,5.55,5.55,0,0,1-1.14-1l1-1a4.15,4.15,0,0,0,1.43,1.14,4.24,4.24,0,0,0,1.8.38,2.9,2.9,0,0,0,1.64-.41,1.31,1.31,0,0,0,.59-1.13,1.36,1.36,0,0,0-.41-1.05,3.29,3.29,0,0,0-1.1-.61c-.45-.16-.93-.31-1.42-.45a7.92,7.92,0,0,1-1.41-.54,3,3,0,0,1-1.1-.91,2.49,2.49,0,0,1-.43-1.54,2.71,2.71,0,0,1,.45-1.57,3,3,0,0,1,1.27-1,4.66,4.66,0,0,1,2-.38,5.42,5.42,0,0,1,2.17.43,3.68,3.68,0,0,1,1.56,1.27l-1,1a3.08,3.08,0,0,0-1.16-.95,3.63,3.63,0,0,0-1.59-.34,2.52,2.52,0,0,0-1.55.4,1.19,1.19,0,0,0-.53,1,1.15,1.15,0,0,0,.43,1,3.29,3.29,0,0,0,1.09.57l1.41.43a8,8,0,0,1,1.43.56,3,3,0,0,1,1.09,1,3.12,3.12,0,0,1-.61,3.88A4.21,4.21,0,0,1,338.27,384Z" transform="translate(-263.95 -205.62)"/><path class="cls-1" d="M354,384a5.63,5.63,0,0,1-2.84-.72,5.31,5.31,0,0,1-2-2,5.54,5.54,0,0,1-.74-2.84,5.68,5.68,0,0,1,.71-2.82,5.29,5.29,0,0,1,2-2,5.44,5.44,0,0,1,2.78-.73,5,5,0,0,1,2.58.66,4.67,4.67,0,0,1,1.76,1.82,5.41,5.41,0,0,1,.65,2.67,3.31,3.31,0,0,1,0,.42,3.56,3.56,0,0,1-.09.56h-9.19v-1.36h8.31l-.56.5a4.31,4.31,0,0,0-.4-2,3.05,3.05,0,0,0-1.19-1.32,3.49,3.49,0,0,0-1.87-.48,3.9,3.9,0,0,0-2,.51,3.61,3.61,0,0,0-1.34,1.4,4.36,4.36,0,0,0-.49,2.09,4.41,4.41,0,0,0,.51,2.15,3.71,3.71,0,0,0,1.42,1.44,4.19,4.19,0,0,0,2.12.52,4.46,4.46,0,0,0,1.76-.35,3.54,3.54,0,0,0,1.38-1.05l1,1a4.82,4.82,0,0,1-1.85,1.38A6.07,6.07,0,0,1,354,384Z" transform="translate(-263.95 -205.62)"/><path class="cls-1" d="M365.76,383.73V373.11h1.6v10.62Zm1.6-6.19-.65-.27a4.81,4.81,0,0,1,1-3.21,3.33,3.33,0,0,1,2.7-1.18,3.56,3.56,0,0,1,1.44.29,3.51,3.51,0,0,1,1.22.89L372,375.17a2.12,2.12,0,0,0-.82-.59,2.89,2.89,0,0,0-1.05-.18,2.63,2.63,0,0,0-2,.79A3.26,3.26,0,0,0,367.36,377.54Z" transform="translate(-263.95 -205.62)"/><path class="cls-1" d="M382.27,384a5.63,5.63,0,0,1-1.65-.24,5.26,5.26,0,0,1-1.44-.66,5.55,5.55,0,0,1-1.14-1l1-1a4.09,4.09,0,0,0,1.44,1.14,4.16,4.16,0,0,0,1.79.38,2.9,2.9,0,0,0,1.64-.41,1.29,1.29,0,0,0,.6-1.13,1.33,1.33,0,0,0-.42-1.05,3.19,3.19,0,0,0-1.1-.61c-.45-.16-.92-.31-1.42-.45a8.22,8.22,0,0,1-1.41-.54,3,3,0,0,1-1.1-.91,2.56,2.56,0,0,1-.42-1.54,2.71,2.71,0,0,1,.45-1.57,3,3,0,0,1,1.26-1,4.68,4.68,0,0,1,2-.38,5.46,5.46,0,0,1,2.17.43,3.71,3.71,0,0,1,1.55,1.27l-1,1a3,3,0,0,0-1.16-.95,3.57,3.57,0,0,0-1.59-.34,2.54,2.54,0,0,0-1.55.4,1.22,1.22,0,0,0-.53,1,1.15,1.15,0,0,0,.43,1,3.35,3.35,0,0,0,1.1.57l1.41.43a7.91,7.91,0,0,1,1.42.56,3,3,0,0,1,1.1,1,2.84,2.84,0,0,1,.41,1.61,2.79,2.79,0,0,1-1,2.27A4.24,4.24,0,0,1,382.27,384Z" transform="translate(-263.95 -205.62)"/><path class="cls-1" d="M407.36,384a5.67,5.67,0,0,1-2.85-.72,5.38,5.38,0,0,1-2-2,5.54,5.54,0,0,1-.73-2.84,5.68,5.68,0,0,1,.71-2.82,5.34,5.34,0,0,1,1.95-2,5.47,5.47,0,0,1,2.78-.73,5,5,0,0,1,2.59.66,4.74,4.74,0,0,1,1.76,1.82,5.41,5.41,0,0,1,.64,2.67,3.17,3.17,0,0,1,0,.42,3.56,3.56,0,0,1-.09.56h-9.19v-1.36h8.31l-.56.5a4.31,4.31,0,0,0-.4-2,3.08,3.08,0,0,0-1.2-1.32,3.48,3.48,0,0,0-1.86-.48,3.85,3.85,0,0,0-2,.51,3.61,3.61,0,0,0-1.34,1.4,4.25,4.25,0,0,0-.49,2.09,4.41,4.41,0,0,0,.51,2.15,3.64,3.64,0,0,0,1.42,1.44,4.15,4.15,0,0,0,2.11.52,4.51,4.51,0,0,0,1.77-.35,3.43,3.43,0,0,0,1.37-1.05l1,1a4.89,4.89,0,0,1-1.85,1.38A6.07,6.07,0,0,1,407.36,384Z" transform="translate(-263.95 -205.62)"/><path class="cls-1" d="M417.66,383.73l4.47-5.83.9,1.17-3.48,4.66Zm8.35,0-3.56-4.81-.32-.3-4.27-5.51h2l3.29,4.34.32.27,4.52,6Zm-2.46-5.13-.9-1.15,3.23-4.34h1.9Z" transform="translate(-263.95 -205.62)"/><path class="cls-1" d="M434.55,388.2V373.11h1.6v2.71l-.31,2.6.31,2.6v7.18Zm5.51-4.25a4.65,4.65,0,0,1-2.19-.5,4.28,4.28,0,0,1-1.59-1.36,4.24,4.24,0,0,1-.76-2v-3.32a4.19,4.19,0,0,1,2.38-3.39,5.09,5.09,0,0,1,4.8.26,5.27,5.27,0,0,1,1.87,2,6.21,6.21,0,0,1,0,5.63,5.23,5.23,0,0,1-1.87,2A4.91,4.91,0,0,1,440.06,384Zm-.29-1.51a3.79,3.79,0,0,0,2-.51,3.58,3.58,0,0,0,1.36-1.42,4.62,4.62,0,0,0,0-4.18,3.67,3.67,0,0,0-1.34-1.42,3.74,3.74,0,0,0-2-.51,3.68,3.68,0,0,0-1.95.51,3.42,3.42,0,0,0-1.32,1.42,4.79,4.79,0,0,0,0,4.18,3.46,3.46,0,0,0,1.31,1.42A3.58,3.58,0,0,0,439.77,382.44Z" transform="translate(-263.95 -205.62)"/><path class="cls-1" d="M457.16,384a5.64,5.64,0,0,1-2.85-.72,5.38,5.38,0,0,1-2-2,5.54,5.54,0,0,1-.73-2.84,5.68,5.68,0,0,1,.71-2.82,5.27,5.27,0,0,1,1.95-2,5.47,5.47,0,0,1,2.78-.73,5,5,0,0,1,2.59.66,4.74,4.74,0,0,1,1.76,1.82A5.41,5.41,0,0,1,462,378c0,.13,0,.26,0,.42a3.56,3.56,0,0,1-.09.56h-9.19v-1.36H461l-.56.5a4.31,4.31,0,0,0-.4-2,3.08,3.08,0,0,0-1.2-1.32,3.48,3.48,0,0,0-1.86-.48,3.85,3.85,0,0,0-2,.51,3.61,3.61,0,0,0-1.34,1.4,4.25,4.25,0,0,0-.49,2.09,4.41,4.41,0,0,0,.51,2.15,3.64,3.64,0,0,0,1.42,1.44,4.15,4.15,0,0,0,2.11.52,4.46,4.46,0,0,0,1.76-.35,3.46,3.46,0,0,0,1.38-1.05l1,1a4.89,4.89,0,0,1-1.85,1.38A6.07,6.07,0,0,1,457.16,384Z" transform="translate(-263.95 -205.62)"/><path class="cls-1" d="M468.92,383.73V373.11h1.61v10.62Zm1.61-6.19-.66-.27a4.87,4.87,0,0,1,1-3.21,3.36,3.36,0,0,1,2.7-1.18,3.48,3.48,0,0,1,2.67,1.18l-1.06,1.11a2.15,2.15,0,0,0-.83-.59,2.89,2.89,0,0,0-1.05-.18,2.66,2.66,0,0,0-2,.79A3.26,3.26,0,0,0,470.53,377.54Z" transform="translate(-263.95 -205.62)"/><path class="cls-1" d="M483.2,370.83a1,1,0,0,1-.77-.34,1.12,1.12,0,0,1-.32-.79,1.07,1.07,0,0,1,.32-.79,1.12,1.12,0,0,1,1.57,0,1.09,1.09,0,0,1,.3.79,1.15,1.15,0,0,1-.3.79A1,1,0,0,1,483.2,370.83Zm-.79,12.9V373.11H484v10.62Z" transform="translate(-263.95 -205.62)"/><path class="cls-1" d="M496.61,384a5.63,5.63,0,0,1-2.84-.72,5.31,5.31,0,0,1-2-2,5.85,5.85,0,0,1,0-5.66,5.2,5.2,0,0,1,1.95-2,5.44,5.44,0,0,1,2.78-.73,5,5,0,0,1,2.58.66,4.67,4.67,0,0,1,1.76,1.82,5.41,5.41,0,0,1,.65,2.67c0,.13,0,.26,0,.42a5.64,5.64,0,0,1-.1.56h-9.19v-1.36h8.31l-.56.5a4.31,4.31,0,0,0-.4-2,3,3,0,0,0-1.19-1.32,3.49,3.49,0,0,0-1.87-.48,3.9,3.9,0,0,0-2,.51,3.61,3.61,0,0,0-1.34,1.4,4.36,4.36,0,0,0-.49,2.09,4.41,4.41,0,0,0,.51,2.15,3.71,3.71,0,0,0,1.42,1.44,4.22,4.22,0,0,0,2.12.52,4.46,4.46,0,0,0,1.76-.35,3.54,3.54,0,0,0,1.38-1.05l1,1a4.82,4.82,0,0,1-1.85,1.38A6,6,0,0,1,496.61,384Z" transform="translate(-263.95 -205.62)"/><path class="cls-1" d="M508.38,383.73V373.11H510v10.62Zm7.74,0v-6.24a3.07,3.07,0,0,0-.83-2.24,2.91,2.91,0,0,0-2.19-.87,3.21,3.21,0,0,0-1.6.39,2.86,2.86,0,0,0-1.11,1.1,3.12,3.12,0,0,0-.41,1.6l-.72-.41a4.17,4.17,0,0,1,.56-2.14,4.08,4.08,0,0,1,1.54-1.49,4.45,4.45,0,0,1,2.19-.55,4.06,4.06,0,0,1,2.17.59,4.17,4.17,0,0,1,1.48,1.58,4.61,4.61,0,0,1,.53,2.17v6.51Z" transform="translate(-263.95 -205.62)"/><path class="cls-1" d="M530,384a5.36,5.36,0,0,1-4.78-2.73,5.81,5.81,0,0,1,0-5.64,5.32,5.32,0,0,1,2-2,5.78,5.78,0,0,1,5.07-.27A5,5,0,0,1,534,374.6L533,375.69a3.59,3.59,0,0,0-1.3-.94,4.07,4.07,0,0,0-1.66-.33,3.78,3.78,0,0,0-2,.52,3.73,3.73,0,0,0-1.38,1.41,4.18,4.18,0,0,0-.5,2,4.27,4.27,0,0,0,.5,2.06A3.68,3.68,0,0,0,528,381.9a3.87,3.87,0,0,0,2,.52,4.23,4.23,0,0,0,1.68-.33,3.88,3.88,0,0,0,1.33-.94l1.06,1.06a5,5,0,0,1-1.8,1.29A5.68,5.68,0,0,1,530,384Z" transform="translate(-263.95 -205.62)"/><path class="cls-1" d="M545.49,384a5.64,5.64,0,0,1-2.85-.72,5.38,5.38,0,0,1-2-2,5.92,5.92,0,0,1,0-5.66,5.2,5.2,0,0,1,2-2,5.47,5.47,0,0,1,2.78-.73,5,5,0,0,1,2.59.66,4.74,4.74,0,0,1,1.76,1.82,5.41,5.41,0,0,1,.64,2.67c0,.13,0,.26,0,.42s-.05.34-.09.56H541v-1.36h8.31l-.57.5a4.19,4.19,0,0,0-.39-2,3.08,3.08,0,0,0-1.2-1.32,3.48,3.48,0,0,0-1.86-.48,3.85,3.85,0,0,0-2,.51,3.63,3.63,0,0,0-1.35,1.4,4.36,4.36,0,0,0-.48,2.09,4.41,4.41,0,0,0,.51,2.15,3.58,3.58,0,0,0,1.42,1.44,4.15,4.15,0,0,0,2.11.52,4.46,4.46,0,0,0,1.76-.35,3.54,3.54,0,0,0,1.38-1.05l1,1a5,5,0,0,1-1.85,1.38A6.07,6.07,0,0,1,545.49,384Z" transform="translate(-263.95 -205.62)"/><polygon class="cls-2" points="158.49 91.34 189.21 39.53 213.09 40.19 183 91.34 158.49 91.34"/><polyline class="cls-3" points="185.79 2.87 213.09 40.43 203.04 56.9 174.81 21.48"/><polyline class="cls-4" points="124.65 0 92.58 45.74 70.86 44.32 101.78 0"/><polyline class="cls-5" points="82.2 27.55 108.95 66.65 97.76 84.92 69.79 45.37 82.2 27.55"/><polyline class="cls-6" points="180.78 0.46 125.98 91.56 101.86 91.34 157.24 0.28"/></svg>