<svg xmlns="http://www.w3.org/2000/svg" width="1433" height="703" viewBox="0 0 1433 703" fill="none"><path d="M11.1953 694.263H38.4849V701.438H2.65625V638.363H11.1953V694.263Z" fill="white"/><path d="M65.2887 661.912C61.5043 661.912 58.5261 663.004 56.3553 665.192C54.1829 667.376 52.834 670.407 52.3053 674.28H76.5575C76.5575 672.461 76.308 670.796 75.8091 669.284C75.3105 667.773 74.5772 666.468 73.6085 665.367C72.6408 664.266 71.4585 663.416 70.0657 662.814C68.6709 662.212 67.0788 661.912 65.2887 661.912ZM65.1137 656.145C67.7835 656.145 70.2485 656.593 72.5085 657.487C74.7673 658.383 76.7189 659.675 78.3621 661.36C80.0043 663.048 81.2897 665.133 82.2143 667.611C83.1371 670.091 83.6001 672.915 83.6001 676.084C83.6001 677.316 83.4679 678.137 83.2037 678.548C82.9392 678.96 82.4403 679.166 81.7075 679.166H52.0408C52.0996 681.981 52.4819 684.433 53.1856 686.517C53.8897 688.6 54.858 690.339 56.0913 691.732C57.3231 693.127 58.7903 694.168 60.4928 694.857C62.1933 695.545 64.1017 695.891 66.2137 695.891C68.1799 695.891 69.8741 695.664 71.2976 695.209C72.7204 694.754 73.9455 694.263 74.9731 693.735C75.9991 693.207 76.858 692.715 77.548 692.26C78.237 691.805 78.8309 691.578 79.3309 691.578C79.9752 691.578 80.4747 691.827 80.8267 692.326L83.0272 695.187C82.0594 696.361 80.8996 697.38 79.5501 698.247C78.1996 699.114 76.7559 699.823 75.2152 700.38C73.6752 700.939 72.0824 701.357 70.4403 701.636C68.7955 701.914 67.1679 702.055 65.5533 702.055C62.4725 702.055 59.6335 701.532 57.0367 700.491C54.4392 699.449 52.1955 697.923 50.3023 695.914C48.41 693.904 46.9351 691.416 45.8793 688.452C44.8231 685.49 44.2949 682.085 44.2949 678.243C44.2949 675.132 44.7715 672.226 45.7252 669.526C46.6783 666.827 48.0507 664.485 49.8403 662.505C51.6304 660.527 53.8163 658.971 56.3985 657.84C58.9804 656.712 61.8845 656.145 65.1137 656.145Z" fill="white"/><path d="M121.496 664.2C121.144 664.847 120.6 665.168 119.867 665.168C119.426 665.168 118.927 665.008 118.37 664.685C117.813 664.36 117.13 664.002 116.324 663.607C115.516 663.209 114.555 662.844 113.44 662.505C112.325 662.169 111.005 661.999 109.479 661.999C108.159 661.999 106.97 662.169 105.914 662.505C104.858 662.844 103.956 663.305 103.207 663.892C102.459 664.479 101.887 665.161 101.491 665.939C101.094 666.717 100.896 667.56 100.896 668.469C100.896 669.615 101.227 670.568 101.887 671.33C102.547 672.095 103.42 672.754 104.505 673.312C105.591 673.869 106.824 674.36 108.203 674.787C109.582 675.212 110.998 675.666 112.451 676.149C113.903 676.635 115.318 677.171 116.698 677.757C118.076 678.344 119.309 679.078 120.394 679.957C121.48 680.839 122.354 681.916 123.014 683.192C123.674 684.469 124.004 686.003 124.004 687.793C124.004 689.847 123.637 691.747 122.904 693.492C122.17 695.24 121.085 696.75 119.647 698.026C118.209 699.303 116.449 700.308 114.365 701.042C112.281 701.773 109.876 702.14 107.147 702.14C104.036 702.14 101.218 701.636 98.6955 700.624C96.171 699.612 94.0294 698.311 92.2695 696.727L94.1185 693.735C94.3529 693.354 94.6309 693.059 94.9538 692.855C95.2762 692.648 95.7018 692.545 96.2305 692.545C96.7586 692.545 97.3158 692.752 97.9033 693.163C98.4903 693.575 99.2013 694.028 100.038 694.527C100.874 695.026 101.887 695.48 103.075 695.891C104.263 696.303 105.752 696.508 107.543 696.508C109.068 696.508 110.404 696.308 111.548 695.914C112.692 695.516 113.646 694.981 114.41 694.307C115.172 693.632 115.737 692.855 116.104 691.975C116.47 691.093 116.653 690.155 116.653 689.156C116.653 687.924 116.324 686.905 115.664 686.097C115.003 685.291 114.129 684.602 113.044 684.029C111.959 683.457 110.719 682.959 109.325 682.533C107.931 682.107 106.509 681.66 105.055 681.191C103.603 680.72 102.18 680.187 100.787 679.583C99.3923 678.983 98.1523 678.227 97.0674 677.316C95.9814 676.408 95.1081 675.285 94.4481 673.951C93.7877 672.615 93.4586 670.993 93.4586 669.085C93.4586 667.385 93.8101 665.748 94.5142 664.18C95.2185 662.609 96.2455 661.229 97.5961 660.042C98.945 658.852 100.602 657.905 102.568 657.202C104.535 656.499 106.779 656.145 109.303 656.145C112.237 656.145 114.871 656.608 117.204 657.531C119.537 658.457 121.553 659.726 123.256 661.34L121.496 664.2Z" fill="white"/><path d="M166.521 668.911H175.456C177.949 668.911 180.144 668.611 182.036 668.008C183.929 667.407 185.513 666.555 186.791 665.456C188.067 664.355 189.027 663.043 189.672 661.515C190.319 659.99 190.641 658.304 190.641 656.455C190.641 652.699 189.401 649.867 186.923 647.96C184.441 646.051 180.752 645.097 175.852 645.097H166.521V668.911ZM166.521 675.117V701.438H158.025V638.363H175.852C179.843 638.363 183.291 638.767 186.196 639.575C189.101 640.381 191.499 641.548 193.392 643.075C195.285 644.599 196.687 646.44 197.596 648.597C198.505 650.752 198.96 653.168 198.96 655.837C198.96 658.068 198.608 660.152 197.904 662.087C197.2 664.026 196.18 665.761 194.844 667.303C193.509 668.845 191.881 670.157 189.959 671.244C188.037 672.33 185.859 673.151 183.423 673.707C184.479 674.324 185.417 675.22 186.24 676.393L204.639 701.438H197.068C195.512 701.438 194.368 700.837 193.635 699.633L177.26 677.096C176.761 676.393 176.219 675.885 175.632 675.578C175.045 675.271 174.164 675.117 172.991 675.117H166.521Z" fill="white"/><path d="M245.573 637.66L235.317 649.016C234.906 649.456 234.502 649.769 234.106 649.963C233.711 650.152 233.203 650.248 232.587 650.248H227.922L234.437 639.596C234.847 638.921 235.295 638.429 235.779 638.121C236.263 637.812 236.974 637.66 237.914 637.66H245.573ZM232.807 661.912C229.023 661.912 226.045 663.004 223.874 665.192C221.701 667.376 220.353 670.407 219.825 674.28H244.075C244.075 672.461 243.826 670.796 243.327 669.284C242.828 667.773 242.095 666.468 241.127 665.367C240.159 664.266 238.977 663.416 237.585 662.814C236.19 662.212 234.598 661.912 232.807 661.912ZM232.633 656.145C235.302 656.145 237.767 656.593 240.027 657.487C242.286 658.383 244.238 659.675 245.881 661.36C247.523 663.048 248.807 665.133 249.733 667.611C250.655 670.091 251.118 672.915 251.118 676.084C251.118 677.316 250.986 678.137 250.722 678.548C250.458 678.96 249.958 679.166 249.226 679.166H219.559C219.618 681.981 220.001 684.433 220.703 686.517C221.409 688.6 222.377 690.339 223.609 691.732C224.841 693.127 226.308 694.168 228.011 694.857C229.712 695.545 231.621 695.891 233.733 695.891C235.698 695.891 237.393 695.664 238.817 695.209C240.239 694.754 241.464 694.263 242.492 693.735C243.518 693.207 244.377 692.715 245.067 692.26C245.755 691.805 246.35 691.578 246.848 691.578C247.494 691.578 247.994 691.827 248.344 692.326L250.546 695.187C249.578 696.361 248.418 697.38 247.069 698.247C245.718 699.114 244.274 699.823 242.734 700.38C241.193 700.939 239.602 701.357 237.958 701.636C236.314 701.914 234.686 702.055 233.071 702.055C229.991 702.055 227.153 701.532 224.555 700.491C221.958 699.449 219.714 697.923 217.821 695.914C215.929 693.904 214.454 691.416 213.398 688.452C212.342 685.49 211.812 682.085 211.812 678.243C211.812 675.132 212.29 672.226 213.243 669.526C214.196 666.827 215.569 664.485 217.358 662.505C219.149 660.527 221.334 658.971 223.917 657.84C226.499 656.712 229.403 656.145 232.633 656.145Z" fill="white"/><path d="M289.012 664.2C288.662 664.847 288.116 665.168 287.384 665.168C286.944 665.168 286.444 665.008 285.887 664.685C285.33 664.36 284.647 664.002 283.842 663.607C283.034 663.209 282.072 662.844 280.958 662.505C279.842 662.169 278.523 661.999 276.996 661.999C275.676 661.999 274.487 662.169 273.431 662.505C272.375 662.844 271.472 663.305 270.724 663.892C269.976 664.479 269.404 665.161 269.008 665.939C268.612 666.717 268.414 667.56 268.414 668.469C268.414 669.615 268.744 670.568 269.404 671.33C270.064 672.095 270.936 672.754 272.023 673.312C273.107 673.869 274.34 674.36 275.72 674.787C277.099 675.212 278.515 675.666 279.967 676.149C281.42 676.635 282.835 677.171 284.215 677.757C285.594 678.344 286.827 679.078 287.911 679.957C288.998 680.839 289.871 681.916 290.531 683.192C291.191 684.469 291.523 686.003 291.523 687.793C291.523 689.847 291.155 691.747 290.422 693.492C289.687 695.24 288.602 696.75 287.163 698.026C285.726 699.303 283.966 700.308 281.883 701.042C279.799 701.773 277.392 702.14 274.663 702.14C271.554 702.14 268.736 701.636 266.212 700.624C263.688 699.612 261.547 698.311 259.787 696.727L261.635 693.735C261.87 693.354 262.148 693.059 262.471 692.855C262.794 692.648 263.219 692.545 263.747 692.545C264.276 692.545 264.832 692.752 265.42 693.163C266.008 693.575 266.719 694.028 267.555 694.527C268.391 695.026 269.404 695.48 270.592 695.891C271.78 696.303 273.27 696.508 275.06 696.508C276.586 696.508 277.922 696.308 279.066 695.914C280.21 695.516 281.163 694.981 281.927 694.307C282.69 693.632 283.254 692.855 283.622 691.975C283.988 691.093 284.171 690.155 284.171 689.156C284.171 687.924 283.842 686.905 283.18 686.097C282.52 685.291 281.647 684.602 280.562 684.029C279.475 683.457 278.236 682.959 276.843 682.533C275.448 682.107 274.026 681.66 272.574 681.191C271.12 680.72 269.696 680.187 268.303 679.583C266.91 678.983 265.67 678.227 264.584 677.316C263.498 676.408 262.626 675.285 261.966 673.951C261.304 672.615 260.975 670.993 260.975 669.085C260.975 667.385 261.327 665.748 262.032 664.18C262.736 662.609 263.763 661.229 265.112 660.042C266.462 658.852 268.12 657.905 270.086 657.202C272.052 656.499 274.296 656.145 276.82 656.145C279.754 656.145 282.388 656.608 284.72 657.531C287.054 658.457 289.071 659.726 290.772 661.34L289.012 664.2Z" fill="white"/><path d="M312.782 656.849V701.438H304.947V656.849H312.782ZM314.542 642.852C314.542 643.617 314.389 644.327 314.081 644.988C313.773 645.647 313.361 646.235 312.847 646.748C312.334 647.261 311.741 647.666 311.066 647.96C310.39 648.252 309.671 648.399 308.909 648.399C308.145 648.399 307.434 648.252 306.774 647.96C306.113 647.666 305.527 647.261 305.014 646.748C304.499 646.235 304.097 645.647 303.802 644.988C303.509 644.327 303.363 643.617 303.363 642.852C303.363 642.091 303.509 641.364 303.802 640.673C304.097 639.984 304.499 639.384 305.014 638.868C305.527 638.359 306.113 637.955 306.774 637.66C307.434 637.366 308.145 637.219 308.909 637.219C309.671 637.219 310.39 637.366 311.066 637.66C311.741 637.955 312.334 638.359 312.847 638.868C313.361 639.384 313.773 639.984 314.081 640.673C314.389 641.364 314.542 642.091 314.542 642.852Z" fill="white"/><path d="M345.175 695.715C347.729 695.715 349.966 695.128 351.887 693.955C353.81 692.781 355.578 691.124 357.191 688.98V667.415C355.754 665.476 354.177 664.12 352.461 663.343C350.743 662.566 348.843 662.176 346.761 662.176C342.594 662.176 339.394 663.657 337.165 666.623C334.935 669.584 333.821 673.811 333.821 679.299C333.821 682.202 334.069 684.69 334.567 686.757C335.066 688.827 335.801 690.529 336.769 691.864C337.738 693.2 338.925 694.174 340.334 694.792C341.743 695.407 343.355 695.715 345.175 695.715ZM360.361 701.438C359.245 701.438 358.541 700.895 358.247 699.807L357.543 694.395C355.637 696.712 353.458 698.569 351.007 699.963C348.558 701.357 345.747 702.055 342.578 702.055C340.026 702.055 337.709 701.561 335.625 700.58C333.541 699.596 331.766 698.151 330.299 696.244C328.83 694.338 327.702 691.96 326.909 689.114C326.117 686.267 325.721 682.993 325.721 679.299C325.721 676.014 326.162 672.954 327.041 670.121C327.921 667.29 329.19 664.832 330.849 662.748C332.506 660.666 334.523 659.027 336.901 657.84C339.278 656.652 341.977 656.056 344.999 656.056C347.729 656.056 350.061 656.52 351.998 657.445C353.934 658.368 355.666 659.666 357.191 661.34V636.604H365.026V701.438H360.361Z" fill="white"/><path d="M398.388 661.912C394.604 661.912 391.627 663.004 389.455 665.192C387.283 667.376 385.933 670.407 385.405 674.28H409.657C409.657 672.461 409.408 670.796 408.909 669.284C408.411 667.773 407.677 666.468 406.708 665.367C405.74 664.266 404.557 663.416 403.165 662.814C401.771 662.212 400.179 661.912 398.388 661.912ZM398.213 656.145C400.884 656.145 403.348 656.593 405.608 657.487C407.867 658.383 409.819 659.675 411.461 661.36C413.104 663.048 414.389 665.133 415.313 667.611C416.237 670.091 416.7 672.915 416.7 676.084C416.7 677.316 416.568 678.137 416.303 678.548C416.04 678.96 415.54 679.166 414.807 679.166H385.141C385.199 681.981 385.581 684.433 386.285 686.517C386.989 688.6 387.957 690.339 389.191 691.732C390.423 693.127 391.889 694.168 393.592 694.857C395.293 695.545 397.201 695.891 399.313 695.891C401.279 695.891 402.975 695.664 404.397 695.209C405.82 694.754 407.045 694.263 408.073 693.735C409.099 693.207 409.959 692.715 410.648 692.26C411.336 691.805 411.931 691.578 412.431 691.578C413.075 691.578 413.575 691.827 413.927 692.326L416.127 695.187C415.16 696.361 413.999 697.38 412.651 698.247C411.3 699.114 409.856 699.823 408.315 700.38C406.775 700.939 405.183 701.357 403.54 701.636C401.896 701.914 400.268 702.055 398.653 702.055C395.572 702.055 392.733 701.532 390.136 700.491C387.539 699.449 385.295 697.923 383.401 695.914C381.509 693.904 380.035 691.416 378.979 688.452C377.923 685.49 377.395 682.085 377.395 678.243C377.395 675.132 377.871 672.226 378.825 669.526C379.777 666.827 381.151 664.485 382.94 662.505C384.729 660.527 386.916 658.971 389.497 657.84C392.08 656.712 394.985 656.145 398.213 656.145Z" fill="white"/><path d="M429.066 701.438V656.849H433.732C434.846 656.849 435.55 657.392 435.845 658.478L436.461 663.319C438.397 661.179 440.561 659.445 442.953 658.126C445.344 656.807 448.11 656.145 451.25 656.145C453.686 656.145 455.834 656.549 457.698 657.357C459.561 658.163 461.116 659.308 462.364 660.791C463.61 662.271 464.557 664.055 465.202 666.136C465.848 668.221 466.17 670.526 466.17 673.048V701.438H458.337V673.048C458.337 669.673 457.566 667.055 456.025 665.192C454.485 663.328 452.13 662.396 448.961 662.396C446.642 662.396 444.478 662.954 442.469 664.068C440.458 665.184 438.602 666.693 436.901 668.602V701.438H429.066Z" fill="white"/><path d="M510.803 664.773C510.568 665.096 510.333 665.345 510.099 665.521C509.863 665.696 509.525 665.785 509.085 665.785C508.645 665.785 508.168 665.602 507.655 665.233C507.141 664.868 506.489 664.466 505.697 664.026C504.905 663.583 503.943 663.183 502.813 662.814C501.684 662.447 500.297 662.263 498.655 662.263C496.483 662.263 494.561 662.654 492.888 663.429C491.216 664.208 489.815 665.331 488.685 666.797C487.555 668.264 486.704 670.039 486.132 672.123C485.56 674.205 485.275 676.539 485.275 679.121C485.275 681.821 485.581 684.22 486.197 686.317C486.815 688.416 487.679 690.178 488.795 691.6C489.909 693.023 491.267 694.109 492.867 694.857C494.465 695.605 496.263 695.979 498.259 695.979C500.165 695.979 501.735 695.752 502.968 695.297C504.2 694.843 505.227 694.338 506.049 693.779C506.869 693.221 507.545 692.715 508.073 692.26C508.601 691.805 509.131 691.578 509.659 691.578C510.333 691.578 510.831 691.827 511.155 692.326L513.355 695.187C511.419 697.564 508.997 699.303 506.093 700.402C503.188 701.503 500.121 702.055 496.895 702.055C494.105 702.055 491.516 701.539 489.125 700.514C486.733 699.487 484.657 697.997 482.897 696.044C481.136 694.093 479.749 691.695 478.737 688.849C477.725 686.003 477.219 682.759 477.219 679.121C477.219 675.805 477.681 672.74 478.605 669.923C479.529 667.105 480.88 664.679 482.656 662.637C484.431 660.597 486.624 659.007 489.236 657.86C491.847 656.717 494.839 656.145 498.215 656.145C501.324 656.145 504.083 656.652 506.489 657.664C508.895 658.678 511.023 660.107 512.871 661.956L510.803 664.773Z" fill="white"/><path d="M541.7 661.912C537.914 661.912 534.937 663.004 532.765 665.192C530.593 667.376 529.244 670.407 528.716 674.28H552.968C552.968 672.461 552.718 670.796 552.22 669.284C551.721 667.773 550.988 666.468 550.018 665.367C549.05 664.266 547.869 663.416 546.476 662.814C545.081 662.212 543.489 661.912 541.7 661.912ZM541.524 656.145C544.194 656.145 546.66 656.593 548.918 657.487C551.178 658.383 553.129 659.675 554.772 661.36C556.414 663.048 557.7 665.133 558.624 667.611C559.548 670.091 560.01 672.915 560.01 676.084C560.01 677.316 559.878 678.137 559.614 678.548C559.35 678.96 558.85 679.166 558.118 679.166H528.452C528.51 681.981 528.892 684.433 529.596 686.517C530.3 688.6 531.269 690.339 532.501 691.732C533.733 693.127 535.201 694.168 536.902 694.857C538.604 695.545 540.512 695.891 542.624 695.891C544.59 695.891 546.285 695.664 547.708 695.209C549.132 694.754 550.356 694.263 551.384 693.735C552.41 693.207 553.269 692.715 553.958 692.26C554.648 691.805 555.241 691.578 555.741 691.578C556.385 691.578 556.885 691.827 557.237 692.326L559.438 695.187C558.47 696.361 557.31 697.38 555.961 698.247C554.61 699.114 553.166 699.823 551.626 700.38C550.085 700.939 548.493 701.357 546.85 701.636C545.206 701.914 543.578 702.055 541.964 702.055C538.884 702.055 536.044 701.532 533.446 700.491C530.85 699.449 528.605 697.923 526.713 695.914C524.821 693.904 523.345 691.416 522.29 688.452C521.233 685.49 520.705 682.085 520.705 678.243C520.705 675.132 521.182 672.226 522.136 669.526C523.089 666.827 524.461 664.485 526.25 662.505C528.041 660.527 530.226 658.971 532.809 657.84C535.39 656.712 538.296 656.145 541.524 656.145Z" fill="white"/><path d="M597.907 664.2C597.555 664.847 597.011 665.168 596.279 665.168C595.838 665.168 595.339 665.008 594.782 664.685C594.224 664.36 593.542 664.002 592.735 663.607C591.928 663.209 590.967 662.844 589.852 662.505C588.736 662.169 587.416 661.999 585.891 661.999C584.571 661.999 583.382 662.169 582.326 662.505C581.27 662.844 580.367 663.305 579.618 663.892C578.87 664.479 578.299 665.161 577.903 665.939C577.506 666.717 577.307 667.56 577.307 668.469C577.307 669.615 577.638 670.568 578.299 671.33C578.958 672.095 579.831 672.754 580.916 673.312C582.002 673.869 583.235 674.36 584.615 674.787C585.994 675.212 587.41 675.666 588.862 676.149C590.315 676.635 591.73 677.171 593.108 677.757C594.488 678.344 595.72 679.078 596.806 679.957C597.892 680.839 598.766 681.916 599.426 683.192C600.086 684.469 600.416 686.003 600.416 687.793C600.416 689.847 600.048 691.747 599.315 693.492C598.58 695.24 597.496 696.75 596.058 698.026C594.62 699.303 592.859 700.308 590.776 701.042C588.692 701.773 586.287 702.14 583.558 702.14C580.447 702.14 577.63 701.636 575.107 700.624C572.583 699.612 570.44 698.311 568.682 696.727L570.53 693.735C570.764 693.354 571.043 693.059 571.366 692.855C571.688 692.648 572.114 692.545 572.642 692.545C573.17 692.545 573.727 692.752 574.315 693.163C574.902 693.575 575.612 694.028 576.45 694.527C577.286 695.026 578.299 695.48 579.487 695.891C580.675 696.303 582.163 696.508 583.955 696.508C585.48 696.508 586.815 696.308 587.96 695.914C589.104 695.516 590.056 694.981 590.82 694.307C591.583 693.632 592.148 692.855 592.515 691.975C592.883 691.093 593.064 690.155 593.064 689.156C593.064 687.924 592.735 686.905 592.075 686.097C591.414 685.291 590.54 684.602 589.456 684.029C588.37 683.457 587.131 682.959 585.736 682.533C584.343 682.107 582.92 681.66 581.467 681.191C580.015 680.72 578.591 680.187 577.198 679.583C575.804 678.983 574.564 678.227 573.479 677.316C572.392 676.408 571.52 675.285 570.859 673.951C570.199 672.615 569.87 670.993 569.87 669.085C569.87 667.385 570.222 665.748 570.926 664.18C571.63 662.609 572.656 661.229 574.007 660.042C575.356 658.852 577.014 657.905 578.98 657.202C580.946 656.499 583.19 656.145 585.715 656.145C588.648 656.145 591.283 656.608 593.615 657.531C595.948 658.457 597.966 659.726 599.667 661.34L597.907 664.2Z" fill="white"/><path d="M648.522 695.715C651.074 695.715 653.312 695.128 655.234 693.955C657.156 692.781 658.924 691.124 660.538 688.98V667.415C659.1 665.476 657.522 664.12 655.806 663.343C654.09 662.566 652.189 662.176 650.106 662.176C645.94 662.176 642.741 663.657 640.512 666.623C638.281 669.584 637.166 673.811 637.166 679.299C637.166 682.202 637.416 684.69 637.914 686.757C638.413 688.827 639.148 690.529 640.114 691.864C641.084 693.2 642.272 694.174 643.681 694.792C645.089 695.407 646.702 695.715 648.522 695.715ZM663.708 701.438C662.592 701.438 661.886 700.895 661.594 699.807L660.889 694.395C658.982 696.712 656.804 698.569 654.354 699.963C651.904 701.357 649.094 702.055 645.925 702.055C643.373 702.055 641.054 701.561 638.97 700.58C636.888 699.596 635.112 698.151 633.645 696.244C632.177 694.338 631.048 691.96 630.256 689.114C629.464 686.267 629.066 682.993 629.066 679.299C629.066 676.014 629.508 672.954 630.388 670.121C631.268 667.29 632.537 664.832 634.196 662.748C635.853 660.666 637.87 659.027 640.246 657.84C642.625 656.652 645.324 656.056 648.345 656.056C651.074 656.056 653.408 656.52 655.344 657.445C657.281 658.368 659.013 659.666 660.538 661.34V636.604H668.373V701.438H663.708Z" fill="white"/><path d="M701.737 661.912C697.953 661.912 694.974 663.004 692.804 665.192C690.63 667.376 689.281 670.407 688.753 674.28H713.005C713.005 672.461 712.756 670.796 712.257 669.284C711.758 667.773 711.025 666.468 710.056 665.367C709.088 664.266 707.906 663.416 706.513 662.814C705.118 662.212 703.526 661.912 701.737 661.912ZM701.561 656.145C704.232 656.145 706.696 656.593 708.956 657.487C711.216 658.383 713.166 659.675 714.809 661.36C716.453 663.048 717.737 665.133 718.661 667.611C719.586 670.091 720.048 672.915 720.048 676.084C720.048 677.316 719.915 678.137 719.651 678.548C719.386 678.96 718.888 679.166 718.156 679.166H688.489C688.548 681.981 688.929 684.433 689.633 686.517C690.338 688.6 691.305 690.339 692.538 691.732C693.77 693.127 695.238 694.168 696.941 694.857C698.641 695.545 700.549 695.891 702.662 695.891C704.628 695.891 706.322 695.664 707.746 695.209C709.169 694.754 710.393 694.263 711.421 693.735C712.446 693.207 713.306 692.715 713.996 692.26C714.685 691.805 715.28 691.578 715.778 691.578C716.422 691.578 716.924 691.827 717.276 692.326L719.477 695.187C718.506 696.361 717.348 697.38 715.998 698.247C714.648 699.114 713.204 699.823 711.664 700.38C710.122 700.939 708.53 701.357 706.887 701.636C705.243 701.914 703.616 702.055 702.001 702.055C698.92 702.055 696.081 701.532 693.485 700.491C690.887 699.449 688.644 697.923 686.75 695.914C684.858 693.904 683.384 691.416 682.328 688.452C681.27 685.49 680.742 682.085 680.742 678.243C680.742 675.132 681.218 672.226 682.173 669.526C683.126 666.827 684.498 664.485 686.287 662.505C688.078 660.527 690.263 658.971 692.846 657.84C695.429 656.712 698.333 656.145 701.561 656.145Z" fill="white"/><path d="M760.495 636.604V701.438H752.662V636.604H760.495Z" fill="white"/><path d="M782.193 635.064C783.044 636.471 783.66 637.88 784.043 639.288C784.423 640.696 784.615 642.104 784.615 643.514C784.615 646.186 783.96 648.728 782.657 651.15C781.351 653.572 779.537 655.793 777.219 657.819L774.797 656.32C774.563 656.175 774.409 656.015 774.336 655.838C774.264 655.662 774.227 655.486 774.227 655.308C774.227 654.899 774.373 654.545 774.667 654.252C775.136 653.696 775.591 653.086 776.032 652.426C776.472 651.767 776.867 651.076 777.219 650.359C777.572 649.639 777.851 648.883 778.056 648.09C778.261 647.299 778.365 646.464 778.365 645.581C778.365 644.643 778.224 643.675 777.945 642.678C777.667 641.68 777.189 640.623 776.516 639.507C776.311 639.187 776.208 638.862 776.208 638.539C776.208 637.836 776.603 637.321 777.395 636.999L782.193 635.064Z" fill="white"/><path d="M801.516 678.023H825.064L815.162 652.36C814.514 650.776 813.884 648.796 813.268 646.419C812.943 647.621 812.63 648.728 812.322 649.742C812.012 650.752 811.712 651.642 811.419 652.405L801.516 678.023ZM842.846 701.438H836.243C835.48 701.438 834.863 701.247 834.394 700.864C833.926 700.484 833.574 700 833.339 699.414L827.44 684.184H799.139L793.242 699.414C793.035 699.942 792.684 700.411 792.186 700.82C791.684 701.232 791.07 701.438 790.336 701.438H783.732L808.954 638.363H817.624L842.846 701.438Z" fill="white"/><path d="M851.955 701.438V656.849H856.446C857.295 656.849 857.883 657.012 858.207 657.333C858.53 657.656 858.75 658.214 858.866 659.007L859.394 665.961C860.919 662.851 862.807 660.421 865.051 658.678C867.295 656.931 869.93 656.056 872.951 656.056C874.183 656.056 875.299 656.197 876.296 656.475C877.294 656.754 878.218 657.143 879.068 657.642L878.056 663.496C877.851 664.231 877.396 664.595 876.694 664.595C876.282 664.595 875.65 664.459 874.8 664.18C873.948 663.9 872.762 663.76 871.235 663.76C868.504 663.76 866.223 664.554 864.391 666.136C862.556 667.721 861.023 670.027 859.791 673.048V701.438H851.955Z" fill="white"/><path d="M903.324 702.14C899.802 702.14 897.094 701.157 895.202 699.192C893.309 697.226 892.362 694.395 892.362 690.697V663.408H886.994C886.524 663.408 886.126 663.268 885.806 662.99C885.482 662.711 885.322 662.28 885.322 661.693V658.567L892.626 657.642L894.432 643.866C894.492 643.424 894.681 643.066 895.004 642.787C895.328 642.508 895.737 642.368 896.236 642.368H900.198V657.731H912.962V663.408H900.198V690.171C900.198 692.047 900.653 693.442 901.562 694.351C902.472 695.26 903.646 695.715 905.084 695.715C905.905 695.715 906.617 695.605 907.218 695.385C907.82 695.166 908.341 694.921 908.781 694.659C909.22 694.395 909.596 694.154 909.904 693.933C910.213 693.712 910.482 693.602 910.717 693.602C911.129 693.602 911.496 693.852 911.818 694.351L914.106 698.092C912.756 699.355 911.129 700.345 909.22 701.063C907.313 701.781 905.348 702.14 903.324 702.14Z" fill="white"/><path d="M960.587 695.715C963.139 695.715 965.375 695.128 967.298 693.955C969.219 692.781 970.987 691.124 972.601 688.98V667.415C971.163 665.476 969.586 664.12 967.87 663.343C966.155 662.566 964.252 662.176 962.168 662.176C958.001 662.176 954.804 663.657 952.575 666.623C950.344 669.584 949.228 673.811 949.228 679.299C949.228 682.202 949.478 684.69 949.979 686.757C950.478 688.827 951.211 690.529 952.178 691.864C953.146 693.2 954.335 694.174 955.743 694.792C957.152 695.407 958.766 695.715 960.587 695.715ZM975.771 701.438C974.655 701.438 973.951 700.895 973.658 699.807L972.954 694.395C971.047 696.712 968.867 698.569 966.416 699.963C963.967 701.357 961.158 702.055 957.99 702.055C955.435 702.055 953.116 701.561 951.034 700.58C948.95 699.596 947.174 698.151 945.708 696.244C944.242 694.338 943.111 691.96 942.319 689.114C941.526 686.267 941.131 682.993 941.131 679.299C941.131 676.014 941.571 672.954 942.451 670.121C943.33 667.29 944.602 664.832 946.258 662.748C947.916 660.666 949.935 659.027 952.311 657.84C954.687 656.652 957.387 656.056 960.408 656.056C963.139 656.056 965.472 656.52 967.407 657.445C969.344 658.368 971.075 659.666 972.601 661.34V636.604H980.438V701.438H975.771Z" fill="white"/><path d="M1013.8 661.912C1010.01 661.912 1007.03 663.004 1004.86 665.192C1002.69 667.376 1001.34 670.407 1000.81 674.28H1025.07C1025.07 672.461 1024.82 670.796 1024.32 669.284C1023.82 667.773 1023.08 666.468 1022.12 665.367C1021.15 664.266 1019.97 663.416 1018.57 662.814C1017.18 662.212 1015.59 661.912 1013.8 661.912ZM1013.62 656.145C1016.29 656.145 1018.76 656.593 1021.02 657.487C1023.27 658.383 1025.23 659.675 1026.87 661.36C1028.51 663.048 1029.8 665.133 1030.72 667.611C1031.65 670.091 1032.11 672.915 1032.11 676.084C1032.11 677.316 1031.98 678.137 1031.71 678.548C1031.45 678.96 1030.95 679.166 1030.22 679.166H1000.55C1000.61 681.981 1000.99 684.433 1001.69 686.517C1002.4 688.6 1003.37 690.339 1004.6 691.732C1005.83 693.127 1007.3 694.168 1009 694.857C1010.7 695.545 1012.61 695.891 1014.72 695.891C1016.69 695.891 1018.38 695.664 1019.81 695.209C1021.23 694.754 1022.45 694.263 1023.48 693.735C1024.51 693.207 1025.37 692.715 1026.05 692.26C1026.74 691.805 1027.34 691.578 1027.84 691.578C1028.48 691.578 1028.98 691.827 1029.33 692.326L1031.54 695.187C1030.57 696.361 1029.41 697.38 1028.06 698.247C1026.71 699.114 1025.26 699.823 1023.72 700.38C1022.18 700.939 1020.59 701.357 1018.95 701.636C1017.3 701.914 1015.68 702.055 1014.06 702.055C1010.98 702.055 1008.14 701.532 1005.55 700.491C1002.95 699.449 1000.7 697.923 998.811 695.914C996.918 693.904 995.442 691.416 994.386 688.452C993.329 685.49 992.801 682.085 992.801 678.243C992.801 675.132 993.278 672.226 994.232 669.526C995.185 666.827 996.558 664.485 998.347 662.505C1000.14 660.527 1002.32 658.971 1004.91 657.84C1007.49 656.712 1010.39 656.145 1013.62 656.145Z" fill="white"/><path d="M1057.77 638.363H1064.59C1065.35 638.363 1065.97 638.554 1066.44 638.936C1066.91 639.316 1067.26 639.802 1067.5 640.388L1085.32 684.888C1085.73 685.885 1086.11 686.971 1086.44 688.143C1086.78 689.319 1087.11 690.535 1087.43 691.797C1087.7 690.535 1087.98 689.319 1088.29 688.143C1088.6 686.971 1088.96 685.885 1089.37 684.888L1107.11 640.388C1107.31 639.89 1107.67 639.427 1108.17 639.002C1108.66 638.578 1109.28 638.363 1110.01 638.363H1116.88L1091.17 701.438H1083.47L1057.77 638.363Z" fill="white"/><path d="M1134.79 656.849V701.438H1126.96V656.849H1134.79ZM1136.55 642.852C1136.55 643.617 1136.4 644.327 1136.09 644.988C1135.78 645.647 1135.37 646.235 1134.86 646.748C1134.35 647.261 1133.75 647.666 1133.08 647.96C1132.4 648.252 1131.68 648.399 1130.92 648.399C1130.16 648.399 1129.45 648.252 1128.78 647.96C1128.13 647.666 1127.54 647.261 1127.02 646.748C1126.51 646.235 1126.11 645.647 1125.82 644.988C1125.52 644.327 1125.38 643.617 1125.38 642.852C1125.38 642.091 1125.52 641.364 1125.82 640.673C1126.11 639.984 1126.51 639.384 1127.02 638.868C1127.54 638.359 1128.13 637.955 1128.78 637.66C1129.45 637.366 1130.16 637.219 1130.92 637.219C1131.68 637.219 1132.4 637.366 1133.08 637.66C1133.75 637.955 1134.35 638.359 1134.86 638.868C1135.37 639.384 1135.78 639.984 1136.09 640.673C1136.4 641.364 1136.55 642.091 1136.55 642.852Z" fill="white"/><path d="M1145.36 656.849H1151.78C1152.4 656.849 1152.91 657.012 1153.32 657.333C1153.73 657.656 1154.02 658.039 1154.2 658.478L1165.51 687.176C1165.92 688.232 1166.25 689.29 1166.48 690.345C1166.72 691.403 1166.94 692.444 1167.14 693.471C1167.38 692.444 1167.63 691.403 1167.89 690.345C1168.16 689.29 1168.49 688.232 1168.9 687.176L1180.35 658.478C1180.52 658.009 1180.81 657.62 1181.21 657.311C1181.6 657.003 1182.09 656.849 1182.68 656.849H1188.8L1170.62 701.438H1163.53L1145.36 656.849Z" fill="white"/><path d="M1198.44 701.438V656.849H1202.93C1203.78 656.849 1204.37 657.012 1204.69 657.333C1205.01 657.656 1205.23 658.214 1205.35 659.007L1205.88 665.961C1207.4 662.851 1209.29 660.421 1211.53 658.678C1213.78 656.931 1216.41 656.056 1219.44 656.056C1220.67 656.056 1221.78 656.197 1222.78 656.475C1223.78 656.754 1224.7 657.143 1225.55 657.642L1224.54 663.496C1224.33 664.231 1223.88 664.595 1223.18 664.595C1222.76 664.595 1222.13 664.459 1221.28 664.18C1220.43 663.9 1219.24 663.76 1217.72 663.76C1214.99 663.76 1212.71 664.554 1210.88 666.136C1209.04 667.721 1207.51 670.027 1206.28 673.048V701.438H1198.44Z" fill="white"/><path d="M1254.11 661.912C1250.33 661.912 1247.35 663.004 1245.18 665.192C1243.01 667.376 1241.66 670.407 1241.13 674.28H1265.38C1265.38 672.461 1265.14 670.796 1264.64 669.284C1264.14 667.773 1263.4 666.468 1262.44 665.367C1261.47 664.266 1260.28 663.416 1258.89 662.814C1257.5 662.212 1255.9 661.912 1254.11 661.912ZM1253.94 656.145C1256.61 656.145 1259.07 656.593 1261.33 657.487C1263.59 658.383 1265.54 659.675 1267.19 661.36C1268.83 663.048 1270.12 665.133 1271.04 667.611C1271.96 670.091 1272.42 672.915 1272.42 676.084C1272.42 677.316 1272.29 678.137 1272.03 678.548C1271.77 678.96 1271.27 679.166 1270.53 679.166H1240.87C1240.93 681.981 1241.31 684.433 1242.01 686.517C1242.72 688.6 1243.68 690.339 1244.92 691.732C1246.15 693.127 1247.62 694.168 1249.32 694.857C1251.02 695.545 1252.93 695.891 1255.04 695.891C1257 695.891 1258.7 695.664 1260.12 695.209C1261.55 694.754 1262.77 694.263 1263.8 693.735C1264.83 693.207 1265.68 692.715 1266.37 692.26C1267.06 691.805 1267.66 691.578 1268.16 691.578C1268.8 691.578 1269.3 691.827 1269.65 692.326L1271.85 695.187C1270.88 696.361 1269.73 697.38 1268.38 698.247C1267.03 699.114 1265.58 699.823 1264.04 700.38C1262.5 700.939 1260.91 701.357 1259.26 701.636C1257.62 701.914 1255.99 702.055 1254.38 702.055C1251.3 702.055 1248.46 701.532 1245.86 700.491C1243.27 699.449 1241.02 697.923 1239.13 695.914C1237.24 693.904 1235.76 691.416 1234.7 688.452C1233.65 685.49 1233.12 682.085 1233.12 678.243C1233.12 675.132 1233.6 672.226 1234.55 669.526C1235.5 666.827 1236.88 664.485 1238.67 662.505C1240.46 660.527 1242.64 658.971 1245.22 657.84C1247.81 656.712 1250.71 656.145 1253.94 656.145Z" fill="white"/><path d="M170.216 521.909C195.041 505.071 207.093 482.704 207.093 453.503C207.093 430.755 198.189 412.653 179.871 398.177C157.38 385.157 139.628 376.283 127.105 371.799C101.027 361.285 82.4907 353.637 71.8776 349.016C53.0505 340.613 43.5208 328.133 43.5208 311.907C43.5208 295.512 50.7943 282.435 65.1407 273.039C77.0979 264.899 91.6781 260.754 108.423 260.754C129.545 261.196 151.275 267.475 173.129 279.423L187.676 256.251C158.937 240.943 131.366 233.181 105.677 233.181C78.212 233.181 54.4563 240.559 35.0708 255.109C14.3615 271.412 4.26041 292.259 4.26041 318.79C4.26041 341.583 13.1703 359.259 31.4989 372.825C41.2136 379.932 54.2792 386.712 70.3177 392.963C84.1995 398.545 98.1959 403.847 111.954 408.732C128.997 415.4 140.036 420.733 145.811 425.077C157.652 434.008 163.903 445.608 164.396 459.551C164.884 478.34 156.696 493.088 140.057 503.423C126.267 511.999 109.478 516.345 90.1599 516.345C62.0672 515.919 36.4375 507.475 13.8677 491.241L0 513.725C27.7912 534.219 58.4719 544.605 91.2407 544.605C121.93 544.605 148.5 536.971 170.216 521.909Z" fill="white"/><path d="M320.15 521.763C335.18 534.64 356.68 541.172 384.051 541.172C387.936 541.172 392.212 541.027 396.806 540.738V521.57C378.912 520.331 365.891 516.542 357.074 510.02C346.011 501.458 340.435 487.016 340.435 467.048V266.935H396.806V242.795H340.435V142.636L297.742 157.84V242.795H263.375V266.935H297.742V468.436C297.742 491.387 305.071 508.83 320.15 521.763Z" fill="white"/><path d="M497.837 354.239C502.626 292.663 527.246 261.44 571.014 261.44C593.1 261.44 610.748 271.584 623.469 291.592C634.01 308.876 639.336 330.031 639.336 354.528V358.268H497.524L497.837 354.239ZM675.096 493.523C643.608 508.235 615.816 516.143 592.445 517.031C562.813 517.997 538.648 505.808 520.541 480.783C502.678 456.104 495.038 423.481 497.834 383.821L498.081 380.345H681.96C680.842 333.104 671.018 297.164 652.74 273.477C634.216 249.473 606.246 237.303 569.61 237.303C529.834 237.303 500.293 253.372 479.301 286.428C461.893 314.556 452.829 350.904 452.385 394.425C451.945 447.079 469.305 488.659 503.982 518.005C522.912 534.296 548.917 542.545 581.3 542.545C599.638 542.545 618.006 539.825 635.894 534.463C649.848 530.243 665.92 522.433 683.696 511.241L675.096 493.523Z" fill="white"/><path d="M782.375 522.506C797.172 535.348 818.319 541.86 845.222 541.86C849.41 541.86 853.684 541.718 857.978 541.438V522.328C840.076 521.092 827.059 517.311 818.251 510.81C807.187 502.266 801.608 487.859 801.608 467.94V66.1897L760.287 79.5776V469.314C760.287 491.904 767.718 509.8 782.375 522.506Z" fill="white"/><path d="M935.647 522.506C950.446 535.348 971.593 541.86 998.497 541.86C1002.68 541.86 1006.96 541.718 1011.25 541.438V522.328C993.35 521.092 980.331 517.311 971.522 510.81C960.458 502.263 954.882 487.856 954.882 467.94V66.1897L913.561 79.5776V469.314C913.561 491.907 920.993 509.803 935.647 522.506Z" fill="white"/><path d="M1109.91 398.07C1123.22 386.764 1140.43 381.034 1161.04 381.034C1206.33 380.548 1225.56 380.346 1227.36 380.346H1231.11V488.644L1230.11 489.72C1214.2 506.951 1192.18 515.68 1164.62 515.68C1163.87 515.68 1163.12 515.674 1162.37 515.66C1142.12 515.66 1124.72 508.47 1110.71 494.283C1096.7 480.106 1089.6 463.378 1089.6 444.562C1089.6 425.17 1096.43 409.527 1109.91 398.07ZM1073.66 513.426C1091.86 531.859 1114.46 541.424 1140.83 541.86C1194.01 542.788 1238.21 526.144 1272.43 492.492V320.163C1272.43 294.894 1262.48 273.896 1242.86 257.752C1224.41 242.822 1202.08 235.242 1176.5 235.242C1141.33 235.242 1107.81 243.342 1076.82 259.32L1086.16 281.328C1112.56 268.128 1138.27 261.44 1162.64 261.44C1180.73 261.44 1196.79 267.29 1210.37 278.827C1224.13 290.504 1231.11 305.336 1231.11 322.91V356.207H1146.17C1118.14 356.207 1094.41 364.455 1075.64 380.718C1057 396.875 1047.33 418.839 1046.9 445.994C1046.47 472.315 1055.47 495.003 1073.66 513.426Z" fill="white"/><path d="M1431.99 33.8614C1431.51 32.32 1429.96 31.384 1428.36 31.6867L1363.83 43.9254C1354.88 46.208 1350.4 38.6507 1348.25 32.064L1340.25 2.35199C1339.88 0.962662 1338.63 4.57764e-05 1337.19 4.57764e-05C1337.17 4.57764e-05 1337.16 4.57764e-05 1337.13 4.57764e-05C1335.68 0.02005 1334.43 1.02405 1334.09 2.43872L1326.96 32.24C1326.02 36.74 1323.55 40.52 1320.19 42.612C1317.55 44.26 1314.52 44.7147 1311.28 43.8933L1258.62 32.9467C1257.07 32.6187 1255.52 33.492 1254.98 34.984C1254.45 36.4747 1255.09 38.132 1256.49 38.872L1304.48 64.1987C1307.5 65.9707 1310.87 68.5173 1312.02 72.044C1313.16 75.5747 1312.69 79.3947 1310.75 82.4587L1241.07 186.328C1240.13 187.723 1240.44 189.608 1241.78 190.627C1242.36 191.064 1243.03 191.277 1243.71 191.277C1244.6 191.277 1245.49 190.9 1246.12 190.175L1328.03 95.192C1328.04 95.176 1328.05 95.1614 1328.07 95.1453C1330.44 92.292 1333.92 90.656 1337.63 90.656C1341.33 90.656 1344.83 92.292 1347.12 95.052L1400.57 164.689C1401.57 165.999 1403.41 166.32 1404.81 165.431C1406.2 164.541 1406.68 162.735 1405.91 161.275L1364.69 82.752C1364.65 82.676 1364.61 82.6014 1364.56 82.528C1362.84 79.1254 1362.09 75.5747 1363.24 72.0453C1364.39 68.5173 1367.01 65.7107 1370.59 64.292L1430.25 37.7147C1431.73 37.0574 1432.48 35.4014 1431.99 33.8614Z" fill="white"/></svg>